<?xml version="1.0" encoding="UTF-8"?>
<svg width="288px" height="80px" viewBox="0 0 288 80" version="1.1" xmlns="http://www.w3.org/2000/svg" xmlns:xlink="http://www.w3.org/1999/xlink">
    <!-- Generator: Sketch 42 (36781) - http://www.bohemiancoding.com/sketch -->
    <title>Desktop HD</title>
    <desc>Created with Sketch.</desc>
    <defs></defs>
    <g id="Page-1" stroke="none" stroke-width="1" fill="none" fill-rule="evenodd">
        <g id="Desktop-HD" transform="translate(-353.000000, -472.000000)">
            <text id="Игра-в-Цель" font-family=".SFNSText-Medium, .SF NS Text" font-size="36" font-weight="400" fill="#000000">
                <tspan x="422.410156" y="514">Игра в Цель</tspan>
            </text>
            <path d="M426.5,538 L640.5,538" id="Line" stroke="#000000" stroke-width="4" stroke-linecap="square"></path>
            <g id="medal-with-number-one" transform="translate(353.000000, 472.000000)" fill-rule="nonzero" fill="#000000">
                <g id="Capa_1">
                    <g id="Group">
                        <path d="M28.2748696,35.3691563 C16.284,35.3691563 6.53243478,45.1625625 6.53243478,57.2011875 C6.53243478,69.23475 16.284,79.025625 28.2748696,79.025625 C40.2682609,79.025625 50.0223478,69.23475 50.0223478,57.2011875 C50.0223478,45.1625625 40.2682609,35.3691563 28.2748696,35.3691563 Z M28.2748696,74.1276562 C18.9746957,74.1276562 11.4094783,66.5339062 11.4094783,57.1986562 C11.4094783,47.8634062 18.9746957,40.267125 28.2748696,40.267125 C37.5750435,40.267125 45.1402609,47.8634062 45.1402609,57.1986562 C45.1478261,66.5339062 37.5775652,74.1276562 28.2748696,74.1276562 Z" id="Shape"></path>
                        <path d="M27.2233043,48.8835 C26.8526087,49.4758125 26.376,49.9516875 25.796,50.301 C25.216,50.655375 24.5628696,50.9059688 23.8441739,51.0553125 C23.1204348,51.2046563 22.3790435,51.273 21.6174783,51.25275 L21.6174783,55.596375 L26.5146957,55.596375 L26.5146957,67.69575 L32.766087,67.69575 L32.766087,46.6939688 L27.8411304,46.6939688 C27.7982609,47.5647188 27.594,48.2937188 27.2233043,48.8835 Z" id="Shape"></path>
                        <polygon id="Shape" points="38.9796522 31.012875 56.3241739 0 41.4206957 0 29.8257391 21.3561562 15.2677391 0.1366875 0.228086957 0.1366875 19.4664348 31.012875"></polygon>
                    </g>
                </g>
            </g>
        </g>
    </g>
</svg>